<?xml version="1.0" encoding="utf-8"?>
<!-- Generator: Adobe Illustrator 22.1.0, SVG Export Plug-In . SVG Version: 6.00 Build 0)  -->
<svg version="1.1" id="Слой_1" xmlns="http://www.w3.org/2000/svg" xmlns:xlink="http://www.w3.org/1999/xlink" x="0px" y="0px"
	 viewBox="0 0 96 96" style="enable-background:new 0 0 96 96;" xml:space="preserve">
<style type="text/css">
	.st0{fill:none;stroke:#CCCB0D;stroke-width:7.229725e-02;stroke-miterlimit:10;}
	.st1{fill:url(#SVGID_1_);}
	.st2{fill:#6F83BB;}
	.st3{fill:#757FBC;}
	.st4{fill:url(#SVGID_2_);}
	.st5{fill:url(#SVGID_3_);}
	.st6{fill:url(#SVGID_4_);}
	.st7{fill:url(#SVGID_5_);}
	.st8{fill:url(#SVGID_6_);}
	.st9{fill:url(#SVGID_7_);}
	.st10{fill:url(#SVGID_8_);}
	.st11{fill:url(#SVGID_9_);}
	.st12{fill:url(#SVGID_10_);}
	.st13{fill:url(#SVGID_11_);}
	.st14{fill:#8066A9;}
	.st15{fill:#678DB7;}
	.st16{fill:#37B4A3;}
	.st17{fill:#4BB490;}
	.st18{fill:#F3F2F3;}
	.st19{fill:url(#SVGID_12_);}
	.st20{fill:url(#SVGID_13_);}
</style>
<g>
	<line class="st0" x1="-60.1" y1="93.3" x2="-60.1" y2="93.3"/>
	
		<linearGradient id="SVGID_1_" gradientUnits="userSpaceOnUse" x1="59.4062" y1="101.3718" x2="59.4062" y2="101.3718" gradientTransform="matrix(6.123234e-17 1 -1 6.123234e-17 40.6514 53.8195)">
		<stop  offset="0.4535" style="stop-color:#9AC87C"/>
		<stop  offset="0.7494" style="stop-color:#78BF8E"/>
		<stop  offset="1" style="stop-color:#38B5AF"/>
	</linearGradient>
	<path class="st1" d="M-60.7,113.2"/>
	<path class="st2" d="M82.7,54.5h-9.4v-5.2h8.9c0.2,0.4,0.3,0.8,0.5,1.2V54.5z"/>
	<g>
		<path class="st3" d="M94.6,61.2h-1.9c-1.1-1.4-2.3-3.3-3.4-5.2h5.3V61.2z"/>
		<path class="st3" d="M87,59.3c0.4,0.6,0.8,1.3,1.3,1.9h-3.1v-5.1C85.7,57.2,86.3,58.3,87,59.3z"/>
		<path class="st2" d="M94.6,54.5h-6.1c-1.1-2-2-3.9-2.6-5.2h8.7V54.5z"/>
		
			<linearGradient id="SVGID_2_" gradientUnits="userSpaceOnUse" x1="2.1819" y1="-37.3811" x2="7.3657" y2="-37.3811" gradientTransform="matrix(6.123234e-17 1 -1 6.123234e-17 40.6514 53.8195)">
			<stop  offset="0.3015" style="stop-color:#45B495"/>
			<stop  offset="1" style="stop-color:#6E85B6"/>
		</linearGradient>
		<polygon class="st4" points="73.3,61.2 73.3,56 82.7,56 82.7,61.2 		"/>
		
			<rect x="63.6" y="53.9" transform="matrix(-1.836970e-16 1 -1 -1.836970e-16 124.7539 -7.5673)" class="st3" width="5.2" height="9.4"/>
		<path class="st2" d="M70.9,54.5h-9.4v-3.4c0.3-0.6,0.7-1.2,1.1-1.8h8.3V54.5z"/>
		
			<linearGradient id="SVGID_3_" gradientUnits="userSpaceOnUse" x1="2.1805" y1="-13.6373" x2="7.3658" y2="-13.6373" gradientTransform="matrix(6.123234e-17 1 -1 6.123234e-17 40.6514 53.8195)">
			<stop  offset="0.3015" style="stop-color:#45B495"/>
			<stop  offset="1" style="stop-color:#6E85B6"/>
		</linearGradient>
		<path class="st5" d="M59,61.2h-9.4V56h9.2c0,0.1,0.1,0.2,0.1,0.4c0,0,0.1-0.1,0.1-0.1V61.2z"/>
		<path class="st2" d="M58.4,54.5h-8.8v-0.2c1.3-1.8,2.5-3.9,3.7-5h2.7c0.2,0.3,0.5,0.6,0.7,1.1C57.4,51.7,57.9,53.1,58.4,54.5z"/>
		<path class="st3" d="M47.1,61.2h-9.4V56h3.9c1,1.1,2.3,1.8,4.1,1.8c0.5,0,1-0.2,1.4-0.6V61.2z"/>
		<path class="st2" d="M42,49.3h5.1v2.3c-0.7,1-1,1.7-1,1.7S44,56.6,42,49.3z"/>
		<path class="st2" d="M40.6,54.5h-2.9v-5.2h0.9C39.1,51.1,39.7,53,40.6,54.5z"/>
		
			<linearGradient id="SVGID_4_" gradientUnits="userSpaceOnUse" x1="2.1819" y1="10.1065" x2="7.3657" y2="10.1065" gradientTransform="matrix(6.123234e-17 1 -1 6.123234e-17 40.6514 53.8195)">
			<stop  offset="0.3015" style="stop-color:#45B495"/>
			<stop  offset="1" style="stop-color:#6E85B6"/>
		</linearGradient>
		<polygon class="st6" points="25.8,61.2 25.8,56 35.3,56 35.3,61.2 		"/>
		
			<linearGradient id="SVGID_5_" gradientUnits="userSpaceOnUse" x1="-4.4791" y1="10.1065" x2="0.7047" y2="10.1065" gradientTransform="matrix(6.123234e-17 1 -1 6.123234e-17 40.6514 53.8195)">
			<stop  offset="0.3015" style="stop-color:#45B495"/>
			<stop  offset="1" style="stop-color:#6E85B6"/>
		</linearGradient>
		<polygon class="st7" points="25.8,54.5 25.8,49.3 35.3,49.3 35.3,54.5 		"/>
		<path class="st3" d="M23.4,61.2h-9.1c0.2-0.2,0.4-0.5,0.5-0.7c1-1.4,1.9-2.9,2.7-4.5h5.9V61.2z"/>
		<path class="st2" d="M23.4,54.5h-5.2c0.7-1.7,1.3-3.4,1.9-5.2h3.3V54.5z"/>
		<path class="st2" d="M15.5,52.3c-0.3,0.8-0.6,1.5-1,2.2H14v-5.2h2.4C15.9,51.2,15.5,52.3,15.5,52.3z"/>
		<path class="st3" d="M9.5,61.2H2.1V56h9.4v3.2C10.9,60,10.2,60.6,9.5,61.2z"/>
		
			<rect x="4.2" y="47.2" transform="matrix(-1.836970e-16 1 -1 -1.836970e-16 58.7334 45.1312)" class="st2" width="5.2" height="9.4"/>
		
			<linearGradient id="SVGID_6_" gradientUnits="userSpaceOnUse" x1="8.8429" y1="-37.3811" x2="14.0267" y2="-37.3811" gradientTransform="matrix(6.123234e-17 1 -1 6.123234e-17 40.6514 53.8195)">
			<stop  offset="0.3015" style="stop-color:#45B495"/>
			<stop  offset="1" style="stop-color:#6E85B6"/>
		</linearGradient>
		<polygon class="st8" points="73.3,67.8 73.3,62.7 82.7,62.7 82.7,67.8 		"/>
		
			<linearGradient id="SVGID_7_" gradientUnits="userSpaceOnUse" x1="8.8429" y1="-25.5092" x2="14.0267" y2="-25.5092" gradientTransform="matrix(6.123234e-17 1 -1 6.123234e-17 40.6514 53.8195)">
			<stop  offset="0.3015" style="stop-color:#45B495"/>
			<stop  offset="1" style="stop-color:#6E85B6"/>
		</linearGradient>
		<polygon class="st9" points="61.5,67.8 61.5,62.7 70.9,62.7 70.9,67.8 		"/>
		
			<linearGradient id="SVGID_8_" gradientUnits="userSpaceOnUse" x1="8.8429" y1="-13.6373" x2="14.0267" y2="-13.6373" gradientTransform="matrix(6.123234e-17 1 -1 6.123234e-17 40.6514 53.8195)">
			<stop  offset="0.3015" style="stop-color:#45B495"/>
			<stop  offset="1" style="stop-color:#6E85B6"/>
		</linearGradient>
		<polygon class="st10" points="49.6,67.8 49.6,62.7 59,62.7 59,67.8 		"/>
		
			<linearGradient id="SVGID_9_" gradientUnits="userSpaceOnUse" x1="8.8429" y1="-1.7654" x2="14.0267" y2="-1.7654" gradientTransform="matrix(6.123234e-17 1 -1 6.123234e-17 40.6514 53.8195)">
			<stop  offset="0.3015" style="stop-color:#45B495"/>
			<stop  offset="1" style="stop-color:#6E85B6"/>
		</linearGradient>
		<polygon class="st11" points="37.7,67.8 37.7,62.7 47.1,62.7 47.1,67.8 		"/>
		
			<linearGradient id="SVGID_10_" gradientUnits="userSpaceOnUse" x1="8.8429" y1="10.1065" x2="14.0267" y2="10.1065" gradientTransform="matrix(6.123234e-17 1 -1 6.123234e-17 40.6514 53.8195)">
			<stop  offset="0.3015" style="stop-color:#45B495"/>
			<stop  offset="1" style="stop-color:#6E85B6"/>
		</linearGradient>
		<polygon class="st12" points="25.8,67.8 25.8,62.7 35.3,62.7 35.3,67.8 		"/>
		
			<linearGradient id="SVGID_11_" gradientUnits="userSpaceOnUse" x1="8.8429" y1="21.9784" x2="14.0267" y2="21.9784" gradientTransform="matrix(6.123234e-17 1 -1 6.123234e-17 40.6514 53.8195)">
			<stop  offset="0.3015" style="stop-color:#45B495"/>
			<stop  offset="1" style="stop-color:#6E85B6"/>
		</linearGradient>
		<polygon class="st13" points="14,67.8 14,62.7 23.4,62.7 23.4,67.8 		"/>
		<path class="st14" d="M7.4,62.7C5.1,64,3,64.3,2.1,64.4v-1.8H7.4z"/>
		<path class="st14" d="M11.5,67.8H2.1c3.7-0.5,6.9-1.8,9.4-3.8V67.8z"/>
		
			<rect x="87.3" y="40.6" transform="matrix(-1.836970e-16 1 -1 -1.836970e-16 135.1757 -44.6331)" class="st15" width="5.2" height="9.4"/>
		
			<rect x="87.3" y="33.9" transform="matrix(-1.836970e-16 1 -1 -1.836970e-16 128.5147 -51.2941)" class="st16" width="5.2" height="9.4"/>
		
			<rect x="87.3" y="27.2" transform="matrix(-1.836970e-16 1 -1 -1.836970e-16 121.8537 -57.9551)" class="st17" width="5.2" height="9.4"/>
		
			<rect x="63.6" y="33.9" transform="matrix(-1.836970e-16 1 -1 -1.836970e-16 104.7709 -27.5503)" class="st16" width="5.2" height="9.4"/>
		
			<rect x="51.7" y="33.9" transform="matrix(-1.836970e-16 1 -1 -1.836970e-16 92.899 -15.6784)" class="st16" width="5.2" height="9.4"/>
		
			<rect x="51.7" y="27.2" transform="matrix(-1.836970e-16 1 -1 -1.836970e-16 86.238 -22.3394)" class="st17" width="5.2" height="9.4"/>
		<path class="st16" d="M23.4,41.2h-1.3c0.2-1,0.5-2,0.7-2.9c0.2-0.7,0.4-1.5,0.5-2.3h0.1V41.2z"/>
		<path class="st16" d="M19.9,36c-0.4,1.7-0.8,3.5-1.3,5.2H14V36H19.9z"/>
		<path class="st17" d="M20.2,34.5H14v-5.2h7.6c-0.4,1.5-0.9,3.2-1.3,5.1C20.2,34.5,20.2,34.5,20.2,34.5z"/>
		<path class="st15" d="M81.6,47.9h-8.3v-4.4c0.2-0.3,0.5-0.6,0.8-0.8h3.9c0.4,0.3,0.8,0.7,1.3,1.1c0.9,0.9,1.4,2.1,1.9,3.3
			C81.4,47.3,81.5,47.6,81.6,47.9z"/>
		<path class="st15" d="M66.1,42.7c-2,0.5-3.5,1.6-4.6,2.8v-2.8H66.1z"/>
		<path class="st15" d="M70.9,47.9h-7.1c1.8-1.8,4.4-3.3,7.1-1.1V47.9z"/>
		<path class="st15" d="M50.1,47.9h-0.6v-5.2H59v4.9c-1.1-1.7-3.3-2.2-3.3-2.2C53.9,44.7,51.9,46.1,50.1,47.9z"/>
		<path class="st15" d="M47.1,47.9h-5.5c-0.3-1.4-0.6-3.1-0.9-5.2h6.4V47.9z"/>
		<path class="st15" d="M37.8,45.6c0.1,0.7,0.3,1.4,0.5,2.2h-0.5v-2.6C37.7,45.4,37.8,45.5,37.8,45.6z"/>
		<path class="st15" d="M23.4,47.9h-2.9c0.5-1.7,0.9-3.5,1.3-5.2h1.6V47.9z"/>
		<path class="st15" d="M18.2,42.7c-0.5,1.9-1,3.7-1.4,5.2H14v-5.2H18.2z"/>
		
			<rect x="4.2" y="40.6" transform="matrix(-1.836970e-16 1 -1 -1.836970e-16 52.0724 38.4702)" class="st15" width="5.2" height="9.4"/>
	</g>
	<path class="st18" d="M2.1,67.8c3.7-0.5,6.9-1.8,9.4-3.8c1-0.8,2-1.8,2.8-2.8c0.2-0.2,0.4-0.5,0.5-0.7c1-1.4,1.9-2.9,2.7-4.5
		c0.2-0.5,0.5-1,0.7-1.5c0.7-1.7,1.3-3.4,1.9-5.2c0.1-0.5,0.3-1,0.4-1.5c0.5-1.7,0.9-3.5,1.3-5.2c0.1-0.5,0.2-1,0.3-1.5
		c0.2-1,0.5-2,0.7-2.9c0.2-0.7,0.4-1.5,0.5-2.3c0.8-3.4,1.5-6.8,3-10c0.6-1.3,1.7-3.4,3.4-3.5c2.8-0.1,4.2,3.9,4.7,6
		c1.4,5.5,2.1,11.2,3.3,16.8c0,0.1,0,0.2,0.1,0.3c0.1,0.7,0.3,1.4,0.5,2.2c0.1,0.5,0.2,1,0.3,1.5c0.5,1.8,1.1,3.7,2,5.2
		c0.3,0.5,0.7,1,1.1,1.5c1,1.1,2.3,1.8,4.1,1.8c0.5,0,1-0.2,1.4-0.6c0.8-0.6,1.7-1.7,2.5-2.9c1.3-1.8,2.5-3.9,3.7-5
		c0.9-0.8,1.8-1,2.7,0c0.2,0.3,0.5,0.6,0.7,1.1c0.7,1.3,1.3,2.7,1.7,4.1c0.2,0.5,0.3,1,0.4,1.5c0,0.1,0.1,0.2,0.1,0.4
		c0,0,0.1-0.1,0.1-0.1c0.6-1.1,1.2-2.2,1.8-3.6c0.2-0.5,0.4-1,0.7-1.5c0.3-0.6,0.7-1.2,1.1-1.8c0.3-0.4,0.5-0.7,0.8-1.1
		c0.1-0.1,0.3-0.3,0.4-0.4c1.8-1.8,4.4-3.3,7.1-1.1c0.1,0.1,0.3,0.2,0.4,0.3c0.6-1.4,1.2-2.7,2.1-3.7c0.2-0.3,0.5-0.6,0.8-0.8
		c1.1-0.9,2.4-1.1,3.9,0c0.4,0.3,0.8,0.7,1.3,1.1c0.9,0.9,1.4,2.1,1.9,3.3c0.1,0.3,0.2,0.5,0.3,0.8c0.2,0.5,0.4,1,0.6,1.5
		c0.2,0.4,0.3,0.8,0.5,1.2c0.8,1.9,1.6,3.8,2.5,5.6c0.5,1.1,1.1,2.2,1.8,3.2c0.4,0.6,0.8,1.3,1.3,1.9c1.8,2.3,4,4.3,6,6.3l-1.9,0h0
		l-9.6,0l-9.4,0l-2.5,0l-9.4,0l-2.5,0l-9.4,0l-2.5,0l-9.4,0l-2.5,0l-9.4,0l-2.5,0l-9.4,0l-2.5,0l-3.2,0h0L2.1,67.8z"/>
	
		<linearGradient id="SVGID_12_" gradientUnits="userSpaceOnUse" x1="-10.2925" y1="-128.3819" x2="-7.501" y2="53.1171" gradientTransform="matrix(6.123234e-17 1 -1 6.123234e-17 40.6514 53.8195)">
		<stop  offset="0.4811" style="stop-color:#37B4A3"/>
		<stop  offset="0.8184" style="stop-color:#572C86"/>
		<stop  offset="1" style="stop-color:#101025"/>
	</linearGradient>
	<path class="st19" d="M94.6,67.8H2.1c3.7-0.5,6.9-1.8,9.4-3.8c1-0.8,2-1.8,2.8-2.8c0.2-0.2,0.4-0.5,0.5-0.7c1-1.4,1.9-2.9,2.7-4.5
		c0.2-0.5,0.5-1,0.7-1.5c0.7-1.7,1.3-3.4,1.9-5.2c0.1-0.5,0.3-1,0.4-1.5c0.5-1.7,0.9-3.5,1.3-5.2c0.1-0.5,0.2-1,0.3-1.5
		c0.2-1,0.5-2,0.7-2.9c0.2-0.7,0.4-1.5,0.5-2.3c0.8-3.4,1.5-6.8,3-10c0.6-1.3,1.7-3.4,3.4-3.5c2.8-0.1,4.2,3.9,4.7,6
		c1.4,5.5,2.1,11.2,3.3,16.8c0,0.1,0,0.2,0.1,0.3c0.1,0.7,0.3,1.4,0.5,2.2c0.1,0.5,0.2,1,0.3,1.5c0.5,1.8,1.1,3.7,2,5.2
		c0.3,0.5,0.7,1,1.1,1.5c1,1.1,2.3,1.8,4.1,1.8c0.5,0,1-0.2,1.4-0.6c0.8-0.6,1.7-1.7,2.5-2.9c1.3-1.8,2.5-3.9,3.7-5
		c0.9-0.8,1.8-1,2.7,0c0.2,0.3,0.5,0.6,0.7,1.1c0.7,1.3,1.3,2.7,1.7,4.1c0.2,0.5,0.3,1,0.4,1.5c0,0.1,0.1,0.2,0.1,0.4
		c0,0.1,0,0.2,0.1,0.3c0.3,1.1,0.6,2.1,0.9,3.1c0.2,0.7,0.5,1.5,1,2.1c0.3,0.3,0.6,0.6,1,0.7c0.4,0.2,0.9,0.3,1.4,0.2
		c0.3,0,0.5-0.1,0.7-0.2c0.6-0.3,1.1-0.8,1.4-1.4c0,0,0.1-0.1,0.1-0.1c1.2-1.6,2-3.4,2.8-5.2c0.2-0.5,0.4-1,0.6-1.5
		c0.4-1,0.7-2.1,1-3.2c0.2-0.6,0.4-1.2,0.6-2c0.2-0.7,0.5-1.5,0.8-2.2c0.6-1.4,1.2-2.7,2.1-3.7c0.2-0.3,0.5-0.6,0.8-0.8
		c1.1-0.9,2.4-1.1,3.9,0c0.4,0.3,0.8,0.7,1.3,1.1c0.9,0.9,1.4,2.1,1.9,3.3c0.1,0.3,0.2,0.5,0.3,0.8c0.2,0.5,0.4,1,0.6,1.5
		c0.2,0.4,0.3,0.8,0.5,1.2c0.8,1.9,1.6,3.8,2.5,5.6c0.5,1.1,1.1,2.2,1.8,3.2c0.4,0.6,0.8,1.3,1.3,1.9c1.8,2.3,4,4.3,6,6.3
		C94.4,67.6,94.5,67.7,94.6,67.8z"/>
	
		<linearGradient id="SVGID_13_" gradientUnits="userSpaceOnUse" x1="-7.8853" y1="-9.6557" x2="14.68" y2="-10.0028" gradientTransform="matrix(6.123234e-17 1 -1 6.123234e-17 40.6514 53.8195)">
		<stop  offset="0" style="stop-color:#4FB0B8"/>
		<stop  offset="1" style="stop-color:#7D6CAC"/>
	</linearGradient>
	<path class="st20" d="M93.1,67.8h-85c0,0,0.1,0,0.2,0h0c0.4-0.1,1.5-0.3,3.2-1.1c0.7-0.4,1.6-0.8,2.5-1.4c1-0.7,2.1-1.5,3.3-2.6
		c0.5-0.5,1-0.9,1.6-1.5c0.9-0.9,1.8-1.9,2.7-3c0,0,0.7-0.8,1.8-1.7c1.1-0.8,2.6-1.7,4.5-2c0.7-0.1,1.3-0.1,2.1,0
		c1.2,0.2,2.5,0.6,3.8,1.5c0.5,0.3,1,0.7,1.5,1.2c0.2,0.2,0.5,0.4,0.7,0.7c0.6,0.6,1.2,1.1,1.7,1.6c0.8,0.7,1.6,1.3,2.4,1.8
		c0.9,0.6,1.8,1.1,2.6,1.5c1.8,0.8,3.3,1.1,4.4,1.2c1.2,0.1,2,0,2.5-0.1c0.2,0,0.3-0.1,0.3-0.1s1.1-0.2,2.8-1
		c0.7-0.4,1.4-0.8,2.2-1.5c1.3-1.1,2.8-2.6,4.1-4.8c0,0,0.1-0.1,0.1-0.1c0.6-1.1,1.2-2.2,1.8-3.6c0.2-0.5,0.4-1,0.7-1.5
		c0.3-0.6,0.7-1.2,1.1-1.8c0.3-0.4,0.5-0.7,0.8-1.1c0.1-0.1,0.3-0.3,0.4-0.4c1.8-1.8,4.4-3.3,7.1-1.1c0.1,0.1,0.3,0.2,0.4,0.3
		c0.3,0.3,0.6,0.6,0.9,0.9c0.4,0.5,0.8,1,1.2,1.5c1.5,1.8,2.9,3.5,4.2,5c0.5,0.5,0.9,1,1.3,1.5c1.4,1.5,2.7,2.8,3.8,4
		c5.1,5,8.3,6.9,9.6,7.6h0C92.9,67.8,93.1,67.8,93.1,67.8z"/>
</g>
</svg>
