<svg width="93" height="89" viewBox="0 0 93 89" fill="none" xmlns="http://www.w3.org/2000/svg">
<path d="M82.3607 65.7073C85.8808 59.5609 87.7875 52.3902 87.7875 44.7804C87.7875 21.2195 68.7203 2.19507 45.1063 2.19507C21.4923 2.19507 2.42505 21.2195 2.42505 44.7804C2.42505 68.3414 21.4923 87.3658 45.1063 87.3658C58.3067 87.3658 70.187 81.3658 77.9606 71.8536" stroke="#FABF8A" stroke-width="3" stroke-miterlimit="10"/>
<path d="M71.6537 57.9512C73.7071 54 74.7338 49.4634 74.7338 44.7805C74.7338 28.3902 61.3868 15.2195 45.1063 15.2195C28.6792 15.2195 15.4788 28.5366 15.4788 44.7805C15.4788 61.0244 28.8258 74.3414 45.1063 74.3414C54.0532 74.3414 61.9734 70.3902 67.4003 64.2439" stroke="#FABF8A" stroke-width="3" stroke-miterlimit="10"/>
<path d="M49.0613 46.549C51.9618 42.5575 49.6879 35.9758 43.9823 31.8483C38.2768 27.7208 31.3002 27.6105 28.3997 31.6019C25.4992 35.5934 27.7731 42.1751 33.4786 46.3026C39.1842 50.4301 46.1608 50.5404 49.0613 46.549Z" stroke="#FABF8A" stroke-width="3" stroke-miterlimit="10"/>
<path d="M50.3864 42.5852L88.9609 70.3901C90.7209 71.5608 91.0143 73.9023 89.8409 75.6584C88.6675 77.4145 86.3208 77.7072 84.5607 76.5364L46.2796 48.8779" stroke="#FABF8A" stroke-width="3" stroke-miterlimit="10"/>
</svg>
