<svg width="82" height="87" viewBox="0 0 82 87" fill="none" xmlns="http://www.w3.org/2000/svg">
<path d="M67.9086 84.7807H14.5204C11.0003 84.7807 8.21356 82.0002 8.21356 78.488V35.4636H74.2155V78.488C74.2155 82.0002 71.4287 84.7807 67.9086 84.7807Z" stroke="#FABF8A" stroke-width="3" stroke-miterlimit="10"/>
<path d="M41.2145 35.9026H79.2023C80.229 35.9026 80.669 34.7319 79.9356 34.0002L61.7485 18.927L41.9479 2.39041C41.5079 2.09773 40.9212 2.09773 40.6278 2.39041L20.8273 18.927L2.64007 34.0002C1.90672 34.5855 2.34673 35.9026 3.37343 35.9026H41.2145V35.9026Z" stroke="#FABF8A" stroke-width="3" stroke-miterlimit="10"/>
<path d="M38.4278 84.7806H22.734V59.6099C22.734 57.8538 24.2007 56.3904 25.9607 56.3904H35.201C36.9611 56.3904 38.4278 57.8538 38.4278 59.6099V84.7806Z" stroke="#FABF8A" stroke-width="3" stroke-miterlimit="10"/>
</svg>
