<svg width="54" height="87" viewBox="0 0 54 87" fill="none" xmlns="http://www.w3.org/2000/svg">
<path d="M39.566 52.439V59.1707C39.566 64 35.6058 68.0976 30.619 68.0976H23.2855C18.4453 68.0976 14.3385 64.1463 14.3385 59.1707V52.439C14.3385 50.3902 13.3118 48.4878 11.6984 47.1707C5.24491 42.1951 1.13809 34.2927 1.72478 25.3659C2.6048 12.4878 13.3118 2.2439 26.2189 1.95122C40.446 1.51219 52.1797 12.9268 52.1797 27.1219C52.1797 35.3171 48.2195 42.6341 42.206 47.1707C40.5926 48.4878 39.566 50.3902 39.566 52.439Z" stroke="#FABF8A" stroke-width="3" stroke-miterlimit="10"/>
<path d="M34.7257 84.7804H19.3253C17.7119 84.7804 16.3918 83.4634 16.3918 81.8536V70.878C16.3918 69.2682 17.7119 67.9512 19.3253 67.9512H34.7257C36.3391 67.9512 37.6591 69.2682 37.6591 70.878V81.8536C37.5124 83.4634 36.1924 84.7804 34.7257 84.7804Z" stroke="#FABF8A" stroke-width="3" stroke-miterlimit="10"/>
<path d="M26.3656 67.6584C26.3656 67.6584 27.979 48.9267 16.0986 32.0975C16.0986 32.0975 27.3923 38.5365 38.8326 31.6584C38.8326 31.6584 28.2723 50.2438 27.979 67.2194" stroke="#FABF8A" stroke-width="3" stroke-miterlimit="10" stroke-linecap="round" stroke-linejoin="round"/>
</svg>
