<svg width="84" height="106" viewBox="0 0 84 106" fill="none" xmlns="http://www.w3.org/2000/svg">
<path d="M10.7549 14.3733C10.8855 16.2802 11.8 17.7471 13.1064 18.0405C13.6289 18.1872 14.2821 17.8938 14.8046 17.8938C16.8948 17.8938 18.2012 16.7203 19.1157 14.6667C19.2463 14.2266 19.3769 13.6399 19.2463 13.3465C18.3318 11.1462 14.8046 8.94596 12.5838 9.09264C11.8 9.09264 11.4081 9.5327 11.2775 10.2661C11.0162 11.2929 10.8855 12.3197 10.6243 13.3465H10.7549C10.7549 13.7866 10.7549 14.08 10.7549 14.3733Z" fill="#FABF8A"/>
<path d="M35.4454 40.1858C36.0985 40.1858 36.3598 39.8924 36.2292 39.3057C35.8373 37.6923 35.576 36.0788 35.0535 34.612C34.4003 32.9986 33.4858 31.6785 32.1795 30.7984C31.265 30.065 30.6118 30.2117 29.828 31.0918C30.8731 31.5318 32.1795 31.2385 32.702 32.8519C31.6569 33.2919 30.6118 33.732 29.5667 34.172C28.6523 34.4654 28.6523 35.0521 28.7829 35.9321C29.0442 37.9856 30.8731 38.4257 31.9182 39.7458C32.0488 39.8924 32.3101 40.0391 32.5714 40.0391C33.3552 40.0391 34.4003 40.0391 35.4454 40.1858Z" fill="#FABF8A"/>
<path d="M80.5154 37.1049C78.2945 33.7317 75.2899 31.5318 72.2852 29.3319C71.632 28.7453 70.8482 28.3053 70.195 27.7187C70.195 27.572 70.195 27.572 70.3256 27.4254H74.7673C74.898 27.2787 75.0286 26.9854 75.1592 26.8387C74.898 26.6921 74.5061 26.5454 74.2448 26.3988C73.1997 25.8121 72.1546 25.2255 71.1095 24.7855C69.5418 24.1989 67.8435 23.9055 66.2759 23.6122C66.0146 23.4656 65.6227 23.3189 65.3614 23.1722C65.3614 23.0256 65.3614 23.0256 65.3614 22.8789C67.7129 22.4389 69.9337 21.8523 72.2852 21.4123C72.2852 21.2657 72.2852 21.119 72.2852 20.9723C71.632 20.679 71.1095 20.0924 70.4563 19.9457C68.758 19.5057 67.1903 19.3591 65.4921 19.0658C63.2712 18.7724 63.2712 18.7724 62.618 16.2792C62.2261 14.8126 62.2261 13.4927 63.4018 12.4661C63.7938 12.1728 64.055 11.5861 64.3163 11.1461C64.447 10.8528 64.5776 10.4128 64.7082 9.97286C64.3163 9.97286 63.9244 9.8262 63.5325 9.8262C62.618 9.97286 61.7036 10.2662 60.6585 10.4128C61.5729 8.3596 62.4874 6.45303 63.4018 4.54645C59.6134 3.51983 56.2168 4.83977 52.6896 6.01305C53.604 3.95981 54.3878 2.05324 55.1717 0.293319C55.1717 0.14666 55.041 0.14666 55.041 0C53.9959 0.14666 52.9508 0.293319 51.9057 0.439979C48.2479 1.02662 44.8513 2.34656 42.1079 5.42641C39.3645 2.34656 35.9679 1.02662 32.3101 0.439979C31.1343 0.439979 30.0892 0.293319 29.0441 0.14666C29.0441 0.293319 28.9135 0.293319 28.9135 0.439979C29.6973 2.1999 30.4812 4.10647 31.3956 6.15971C27.8684 4.98643 24.4718 3.66649 20.6833 4.69311C21.5978 6.74635 22.3816 8.50626 23.4267 10.5595C22.3816 10.2662 21.4672 10.1195 20.5527 9.97286C20.1608 9.97286 19.7689 9.97286 19.377 10.1195C19.6382 10.4128 19.6382 10.8528 19.8995 11.2928C20.1608 11.7328 20.4221 12.1728 20.814 12.6127C21.9897 13.6394 21.9897 14.9593 21.5978 16.4259C20.9446 18.9191 20.9446 18.9191 18.7238 19.2124C17.0255 19.3591 15.3272 19.6524 13.7595 20.0924C12.9757 20.0924 12.4532 20.679 11.8 20.9723C11.8 21.119 11.8 21.2657 11.8 21.4123C14.1514 21.8523 16.3723 22.4389 18.7238 22.8789C18.7238 23.0256 18.7238 23.0256 18.7238 23.1722C18.4625 23.3189 18.2012 23.4656 17.8093 23.6122C16.2417 24.0522 14.5434 24.3455 12.9757 24.7855C11.9306 25.0788 10.8855 25.8121 9.84041 26.3988C9.57913 26.5454 9.18722 26.6921 8.92594 26.8387C9.18722 27.1321 9.18722 27.2787 9.31785 27.4254H13.7595C13.7595 27.572 13.7595 27.572 13.8902 27.7187C13.1063 28.3053 12.4532 28.892 11.8 29.3319C8.7953 31.5318 5.79064 33.8784 3.5698 37.1049C0.826406 41.2114 -0.0880577 46.0512 0.0425799 51.1842C0.0425799 51.4776 0.173218 51.6242 0.303855 52.0642C2.00214 50.5976 3.70043 49.131 5.26809 47.6644C5.39872 47.6644 5.39872 47.8111 5.52936 47.8111C4.22299 51.4776 1.87151 54.7041 1.61023 59.2505C2.13278 58.8106 2.39406 58.6639 2.65533 58.3706C3.96171 56.904 5.26809 55.7307 6.44383 54.4108C6.57446 54.2641 6.83574 54.2641 7.09701 54.1174C7.09701 54.4108 7.22765 54.7041 7.09701 54.8507C6.31319 56.7573 5.39872 58.5172 4.48426 60.4238C4.22299 61.1571 3.96171 61.7438 3.70043 62.477C2.91661 64.3836 3.04725 66.2902 3.96171 68.0501C7.22765 74.2098 11.4081 79.1963 17.2868 82.5694C20.9446 84.6227 24.4718 87.2625 27.999 89.6091C28.7829 90.1957 29.4361 90.929 30.4812 91.809V87.4092C32.0488 88.4358 33.0939 89.6091 33.0939 91.6623C33.0939 92.3956 33.3552 93.1289 33.6165 93.7156C36.2292 97.5287 38.9726 101.195 41.5854 104.862C41.716 105.008 41.8466 105.155 41.8466 105.155H41.9773C42.1079 105.008 42.2385 105.008 42.2385 104.862C44.8513 101.049 47.5947 97.3821 50.2074 93.7156C50.5994 93.1289 50.73 92.3956 50.73 91.6623C50.73 89.6091 51.7751 88.4358 53.3427 87.4092V91.809C54.2572 90.929 54.9104 90.1957 55.8249 89.6091C59.3521 87.1159 62.7487 84.6227 66.5372 82.5694C72.4158 79.3429 76.5963 74.3565 79.8622 68.0501C80.7767 66.2902 80.9073 64.3836 80.1235 62.477C79.8622 61.7438 79.6009 61.1571 79.209 60.4238C78.2945 58.5172 77.5107 56.7573 76.5963 54.8507C76.4656 54.7041 76.5963 54.4108 76.5963 54.1174C76.8575 54.2641 76.9882 54.2641 77.2494 54.4108C78.5558 55.7307 79.7316 56.904 81.0379 58.2239C81.2992 58.5172 81.6911 58.6639 82.083 59.1039C81.8218 54.7041 79.4703 51.4776 78.1639 47.6644C78.2945 47.6644 78.2945 47.5178 78.4252 47.5178C80.1235 48.9844 81.6911 50.4509 83.3894 51.9175C83.5201 51.4776 83.6507 51.3309 83.6507 51.0376C84.3039 46.0512 83.2588 41.3581 80.5154 37.1049ZM56.2168 74.5032C54.5185 74.3565 54.9104 75.9697 54.6491 76.8497C54.2572 76.4097 53.9959 76.1164 53.604 75.6764C53.2121 78.6096 51.9057 80.3695 49.6849 81.1028C49.4236 80.2229 49.293 80.0762 48.7704 80.6629C48.3785 80.9562 48.1172 81.3962 47.7253 81.6895C46.027 83.1561 44.1981 84.036 42.1079 84.036C40.0177 84.036 38.1888 83.1561 36.4905 81.6895C36.0986 81.3962 35.8373 80.9562 35.4454 80.6629C34.9228 80.0762 34.7922 80.0762 34.5309 81.1028C32.3101 80.2229 30.8731 78.463 30.6118 75.6764C30.2199 76.1164 29.9586 76.4097 29.5667 76.8497C29.3054 75.8231 29.6973 74.2098 27.999 74.5032C27.999 74.3565 27.999 74.3565 27.999 74.2098C28.7829 73.4765 29.5667 72.7432 30.4812 72.0099C29.9586 71.2766 29.6973 70.9833 29.3054 70.5433C30.2199 70.1034 31.265 69.9567 32.0488 70.25C34.0084 71.2766 35.8373 70.8367 37.6662 70.3967C39.1032 70.1034 40.6709 69.6634 42.1079 69.5167C42.1079 69.5167 42.1079 69.5167 42.2385 69.5167C42.2385 69.5167 42.2385 69.5167 42.3692 69.5167C43.8062 69.6634 45.3738 69.9567 46.8109 70.3967C48.7704 70.8367 50.5994 71.2766 52.4283 70.25C53.2121 69.81 54.2572 69.9567 55.1717 70.5433C54.7798 70.9833 54.5185 71.4233 53.9959 72.0099C54.7798 72.7432 55.6942 73.4765 56.4781 74.2098C56.2168 74.3565 56.2168 74.5032 56.2168 74.5032ZM65.6227 37.8382C64.447 39.4515 63.0099 40.7714 62.3567 42.8246C62.3567 42.9713 62.0955 43.118 61.9648 43.4113C60.9197 44.5846 59.8746 45.7578 58.8295 46.9311C58.307 47.5178 57.7844 47.9577 57.2619 48.5444C56.2168 47.8111 55.3023 47.2244 54.3878 46.6378L54.1266 46.9311L56.6087 53.0908C57.5232 55.1441 58.6989 56.904 60.5278 58.3706C58.6989 61.4504 57.0006 64.5303 55.041 67.3168C53.2121 69.9567 50.8606 70.3967 48.1172 68.9301C46.8109 68.1968 45.5045 67.3168 44.3288 66.4369C43.4143 65.7036 42.7611 65.4102 42.1079 65.2636C42.1079 65.2636 42.1079 65.2636 41.9773 65.2636C41.9773 65.2636 41.9773 65.2636 41.8466 65.2636C41.1934 65.2636 40.5403 65.7036 39.6258 66.4369C38.4501 67.3168 37.1437 68.3434 35.8373 68.9301C33.0939 70.3967 30.7424 69.9567 28.9135 67.3168C26.9539 64.5303 25.2556 61.4504 23.4267 58.3706C25.2556 56.904 26.562 55.1441 27.3459 53.0908C28.1297 51.0376 29.0441 48.9844 29.828 46.9311C29.6973 46.7845 29.6973 46.7845 29.5667 46.6378C28.6522 47.2244 27.7378 47.8111 26.6927 48.5444C26.1701 47.9577 25.6476 47.5178 25.125 46.9311C24.0799 45.7578 23.0348 44.5846 21.9897 43.4113C21.8591 43.2646 21.5978 43.118 21.5978 42.8246C20.9446 40.7714 19.5076 39.4515 18.3319 37.8382C18.3319 37.8382 18.3319 37.6916 18.2012 37.3982C19.2463 36.8116 20.1608 36.0783 21.2059 35.6383C23.9493 34.3184 24.0799 33.1451 21.8591 30.9452C21.7284 30.7985 21.7284 30.7985 21.4672 30.6519C21.9897 30.5052 22.3816 30.6519 22.6429 30.3586C22.9042 30.2119 23.0348 29.7719 23.2961 29.4786L23.1654 29.3319C23.9493 29.1853 24.6025 29.0386 25.3863 28.892C27.7378 28.452 29.5667 27.1321 30.7424 24.6388C31.0037 24.0522 31.265 23.4656 31.5263 22.7323C32.5714 20.3857 33.8777 19.6524 36.2292 20.0924C38.0581 20.5324 39.8871 21.119 41.716 21.119C41.716 21.119 41.716 21.119 41.8466 21.119C41.8466 21.119 41.8466 21.119 41.9773 21.119C43.8062 21.119 45.6351 20.3857 47.4641 20.0924C49.8155 19.6524 51.1219 20.239 52.167 22.7323C52.4283 23.3189 52.6896 23.9055 52.9508 24.6388C53.9959 27.1321 55.8249 28.452 58.307 28.892C59.0908 29.0386 59.744 29.1853 60.5278 29.3319L60.3972 29.4786C60.6585 29.7719 60.7891 30.2119 61.0504 30.3586C61.4423 30.5052 61.8342 30.5052 62.2261 30.6519C62.0955 30.7985 61.9648 30.9452 61.8342 30.9452C59.4827 33.1451 59.744 34.3184 62.4874 35.6383C63.5325 36.0783 64.4469 36.8116 65.4921 37.3982C65.6227 37.6916 65.6227 37.8382 65.6227 37.8382Z" fill="#FABF8A"/>
<path d="M69.2805 17.8926C69.8031 17.8926 70.4563 18.0393 70.9788 18.0393C72.2852 17.746 73.1997 16.426 73.3303 14.5193C73.3303 14.226 73.3303 13.786 73.3303 13.4926H73.4609C73.3303 12.466 73.069 11.4393 72.9384 10.4126C72.8077 9.6793 72.2852 9.2393 71.632 9.2393C69.4112 8.94597 65.8839 11.146 64.9695 13.346C64.8388 13.6393 64.8388 14.226 65.1001 14.666C65.8839 16.7193 67.1903 17.8926 69.2805 17.8926Z" fill="#FABF8A"/>
<path d="M48.6398 47.8106C48.5092 47.8106 48.3786 47.8106 48.2479 47.8106C48.2479 48.1039 48.2479 48.5439 48.2479 48.8373C46.5496 49.864 44.8513 50.8908 43.1531 51.9175C42.8918 52.0642 42.4999 52.2109 42.1079 52.0642C42.1079 52.0642 42.1079 52.0642 41.9773 52.0642C41.9773 52.0642 41.9773 52.0642 41.8467 52.0642C41.4548 52.0642 41.0628 52.0642 40.8016 51.9175C39.1033 51.0374 37.405 49.864 35.7067 48.8373C35.7067 48.3973 35.7067 48.1039 35.7067 47.8106C35.5761 47.8106 35.4454 47.6639 35.3148 47.8106C34.0084 48.5439 32.8327 49.424 32.1795 51.0374C32.0488 51.3308 32.0488 51.9175 32.0488 52.3575C32.702 54.411 34.2697 56.9045 37.0131 56.9045C37.6663 56.9045 38.0582 57.0512 38.1888 57.9313C38.1888 58.3713 38.4501 58.958 38.842 59.2514C39.4952 59.9847 40.1484 60.7181 40.9322 61.3048C41.1935 61.4515 41.4548 61.5982 41.716 61.7449C41.8467 61.7449 42.1079 61.7449 42.1079 61.7449C42.3692 61.7449 42.6305 61.5982 42.8918 61.3048C43.545 60.5715 44.3288 59.9847 44.982 59.2514C45.2433 58.958 45.5045 58.3713 45.6352 57.9313C45.7658 57.0512 46.1577 56.9045 46.8109 56.9045C49.5543 56.9045 51.122 54.2643 51.7752 52.3575C51.9058 52.0642 51.9058 51.4775 51.6445 51.0374C51.122 49.424 49.9462 48.5439 48.6398 47.8106Z" fill="#FABF8A"/>
<path d="M54.6491 34.027C53.604 33.5869 52.5589 33.1469 51.5138 32.7068C52.0364 31.0933 53.3427 31.5334 54.3878 30.9467C53.604 30.0666 52.9508 30.0666 52.0364 30.6533C50.73 31.5334 49.8156 33.0002 49.1624 34.467C48.6398 35.9338 48.2479 37.5473 47.9866 39.1608C47.856 39.7475 48.1173 40.1876 48.7705 40.0409C49.8156 39.8942 50.8607 39.8942 51.9057 39.7475C52.167 39.7475 52.4283 39.6009 52.5589 39.4542C53.604 38.134 55.4329 37.694 55.6942 35.6405C55.6942 34.9071 55.5636 34.3203 54.6491 34.027Z" fill="#FABF8A"/>
</svg>
