<svg width="61" height="96" viewBox="0 0 61 96" fill="none" xmlns="http://www.w3.org/2000/svg">
<path d="M13.1424 76.7864C19.5002 76.7864 24.6543 72.5256 24.6543 67.2698C24.6543 62.0139 19.5002 57.7532 13.1424 57.7532C6.7845 57.7532 1.63043 62.0139 1.63043 67.2698C1.63043 72.5256 6.7845 76.7864 13.1424 76.7864Z" stroke="#FABF8A" stroke-width="2.3996" stroke-miterlimit="10" stroke-linecap="round"/>
<path d="M24.6543 67.2702V18.6616L59.3224 42.9659V83.229" stroke="#FABF8A" stroke-width="2.3996" stroke-miterlimit="10" stroke-linecap="round"/>
<path d="M47.9428 94.2095C54.3006 94.2095 59.4547 89.9489 59.4547 84.6932C59.4547 79.4376 54.3006 75.177 47.9428 75.177C41.5849 75.177 36.4308 79.4376 36.4308 84.6932C36.4308 89.9489 41.5849 94.2095 47.9428 94.2095Z" stroke="#FABF8A" stroke-width="2.3996" stroke-miterlimit="10" stroke-linecap="round"/>
<path d="M59.3224 42.9661V27.1533L24.6543 2.84839V18.6612" stroke="#FABF8A" stroke-width="2.3996" stroke-miterlimit="10" stroke-linecap="round"/>
</svg>
