<svg width="98" height="103" viewBox="0 0 98 103" fill="none" xmlns="http://www.w3.org/2000/svg">
<path d="M83.6884 92.4548H14.2663C7.48069 92.4548 2 86.2833 2 78.6425V48.8136C2 41.1727 7.48069 35.0012 14.2663 35.0012H83.6884C90.474 35.0012 95.9547 41.1727 95.9547 48.8136V78.6425C95.9547 86.2833 90.474 92.4548 83.6884 92.4548Z" stroke="#FABF8A" stroke-width="3.1282" stroke-miterlimit="10"/>
<path d="M46.8116 2.35449L33.2477 17.6279L46.8116 32.9014L60.3755 17.6279L46.8116 2.35449Z" stroke="#FABF8A" stroke-width="3.1282" stroke-miterlimit="10"/>
<path d="M2.13049 65.8586L95.9547 67.3274" stroke="#FABF8A" stroke-width="3.1282" stroke-miterlimit="10"/>
<path d="M27.5765 35.0012V66.2991" stroke="#FABF8A" stroke-width="3.1282" stroke-miterlimit="10"/>
<path d="M67.3768 35.0012V66.8896" stroke="#FABF8A" stroke-width="3.1282" stroke-miterlimit="10"/>
<path d="M15.4407 92.4551C17.0066 97.4516 21.3129 101.125 26.2716 101.125C31.2304 101.125 35.5366 97.5985 37.1025 92.4551" stroke="#FABF8A" stroke-width="3.1282" stroke-miterlimit="10"/>
<path d="M60.8522 92.4551C62.4181 97.4516 66.7243 101.125 71.6831 101.125C76.6418 101.125 80.948 97.5985 82.5139 92.4551" stroke="#FABF8A" stroke-width="3.1282" stroke-miterlimit="10"/>
</svg>
